# Blender 3.6.2
# www.blender.org
mtllib Underacid_cube obj File.mtl
o Cube
v -0.013166 -0.611766 1.414122
v -0.019013 1.388226 1.414122
v -1.411193 -0.615853 -0.016089
v -1.417039 1.384139 -0.016089
v 1.417039 -0.607584 0.016089
v 1.411193 1.392407 0.016089
v 0.019013 -0.611671 -1.414122
v 0.013166 1.388320 -1.414122
vn -0.7151 -0.0021 0.6990
vn -0.6990 -0.0020 -0.7151
vn 0.7151 0.0021 -0.6990
vn 0.6990 0.0020 0.7151
vn 0.0029 -1.0000 -0.0000
vn -0.0029 1.0000 -0.0000
vt 0.375000 0.000000
vt 0.625000 0.000000
vt 0.625000 0.250000
vt 0.375000 0.250000
vt 0.625000 0.500000
vt 0.375000 0.500000
vt 0.625000 0.750000
vt 0.375000 0.750000
vt 0.625000 1.000000
vt 0.375000 1.000000
vt 0.125000 0.500000
vt 0.125000 0.750000
vt 0.875000 0.500000
vt 0.875000 0.750000
s 0
usemtl Material.002
f 1/1/1 2/2/1 4/3/1 3/4/1
f 3/4/2 4/3/2 8/5/2 7/6/2
f 7/6/3 8/5/3 6/7/3 5/8/3
f 5/8/4 6/7/4 2/9/4 1/10/4
f 3/11/5 7/6/5 5/8/5 1/12/5
f 8/5/6 4/13/6 2/14/6 6/7/6
